<svg width="24" height="24" viewBox="0 0 24 24" fill="none" xmlns="http://www.w3.org/2000/svg">
<path fill-rule="evenodd" clip-rule="evenodd" d="M7.43933 2.93799C8.02275 2.354 8.97317 2.354 9.55891 2.93799C10.147 3.52669 10.147 4.47334 9.55891 5.06201C8.97549 5.646 8.02507 5.646 7.43933 5.06201C6.85356 4.47331 6.85356 3.52431 7.43933 2.93799ZM11.4395 6.94135C12.0255 6.35288 12.9763 6.35288 13.5623 6.94135C14.1459 7.52511 14.1459 8.4761 13.5623 9.06218C12.9763 9.64594 12.0255 9.64594 11.4395 9.06218C10.8535 8.47606 10.8535 7.52508 11.4395 6.94135ZM17.5623 10.9396C16.9739 10.3535 16.0255 10.3535 15.4395 10.9396C14.8535 11.5233 14.8535 12.4743 15.4395 13.0604C16.0255 13.6465 16.9763 13.6465 17.5623 13.0604C18.1459 12.4767 18.1459 11.5257 17.5623 10.9396ZM11.4395 14.9392C12.0255 14.3536 12.9763 14.3536 13.5623 14.9392C14.1459 15.5249 14.1459 16.4751 13.5623 17.0608C12.9763 17.6464 12.0255 17.6464 11.4395 17.0608C10.8535 16.4751 10.8535 15.5249 11.4395 14.9392ZM9.55891 18.9396C8.97317 18.3535 8.02275 18.3535 7.43933 18.9396C6.85356 19.5233 6.85356 20.4743 7.43933 21.0604C8.02507 21.6465 8.97549 21.6465 9.55891 21.0604C10.147 20.4743 10.147 19.5233 9.55891 18.9396Z" fill="#00325F"/>
</svg>
